<svg width="42" height="42" viewBox="0 0 42 42" fill="none" xmlns="http://www.w3.org/2000/svg">
  <path
    d="M26.5358 28.0671C24.9525 29.7039 22.8685 30.7232 20.6391 30.9513C18.4096 31.1794 16.1725 30.6022 14.3089 29.3181C12.4453 28.034 11.0705 26.1224 10.4188 23.909C9.76708 21.6956 9.87871 19.3173 10.7347 17.1794C11.5907 15.0414 13.138 13.2761 15.1131 12.1841C17.0882 11.0921 19.3689 10.7411 21.5666 11.1907C23.7643 11.6404 25.7429 12.863 27.1656 14.6502C28.5882 16.4374 29.3667 18.6787 29.3684 20.9921H26.9474C26.9488 19.2569 26.3676 17.5748 25.3026 16.2325C24.2377 14.8902 22.7549 13.9708 21.107 13.6309C19.4591 13.2909 17.7481 13.5516 16.2654 14.3684C14.7828 15.1852 13.6203 16.5075 12.976 18.1102C12.3318 19.7129 12.2456 21.4966 12.7323 23.1575C13.2189 24.8184 14.2483 26.2536 15.6449 27.2187C17.0415 28.1837 18.7189 28.6188 20.3914 28.4499C22.0639 28.2809 23.6278 27.5184 24.8168 26.2921L26.5358 28.0671ZM23.3158 20.9921H33L28.1579 25.9921L23.3158 20.9921Z"
    fill="currentColor" />
</svg>
